# xmcd
#
# Track frame offsets:
#	150
#	12786
#	28124
#	41119
#	53535
#	68764
#	83619
#	96900
#	108951
#	121530
#	134008
#	145770
#	158399
#	172874
#	186610
#	199883
#	214578
#
# Disc length: 3090 seconds
#
# Revision: 3
# Processed by: cddbd v1.5.2PL0 Copyright (c) Steve Scherf et al.
# Submitted via: audiograbber 1.83.01
#
DISCID=dd0c1011
DTITLE=Various Artist - Blues Is Black [CD 1)
DYEAR=1999
DGENRE=Blues
TTITLE0=Sonny Terry - Airplane Blues
TTITLE1=Joe Lee Williams - Baby Please Don't Go
TTITLE2=Blind Boy Fuller and Sonny Terry - Blowing The Blues
TTITLE3=Sleepy John Estes - Drop Down (I Don't Feel Welcome Here)
TTITLE4=J. Hurt - Frankie
TTITLE5=Big Bill Broonzy - Good Jelly
TTITLE6=Bessie Smith - Mama's  Got The Blues
TTITLE7=Charly Patton - Revue Man Blues
TTITLE8=P. Chatman - The Jive Blues
TTITLE9=Memphis Minnie - Me And My Chafeur Blues
TTITLE10=Arthur Crudup - Mean Old 'Frisco Blues
TTITLE11=Kokomo Arnold - Sally Dog
TTITLE12=John Lee Willianson - Susi-Q
TTITLE13=T-Bone Walker with Marl Young And His Orchestra - T-Bone Boogie
TTITLE14=Tampa Red - You Can't Get That Stuff No More
TTITLE15=Ma Rainey And Her - Booze And Blues
TTITLE16=John Davis - Everyday I Have The Blues
EXTD=
EXTT0=
EXTT1=
EXTT2=
EXTT3=
EXTT4=
EXTT5=
EXTT6=
EXTT7=
EXTT8=
EXTT9=
EXTT10=
EXTT11=
EXTT12=
EXTT13=
EXTT14=
EXTT15=
EXTT16=
PLAYORDER=
